<?xml version="1.0" encoding="UTF-8" standalone="no"?>
<!-- Created with Inkscape (http://www.inkscape.org/) -->

<svg
   xmlns:dc="http://purl.org/dc/elements/1.1/"
   xmlns:cc="http://creativecommons.org/ns#"
   xmlns:rdf="http://www.w3.org/1999/02/22-rdf-syntax-ns#"
   xmlns:svg="http://www.w3.org/2000/svg"
   xmlns="http://www.w3.org/2000/svg"
   xmlns:sodipodi="http://sodipodi.sourceforge.net/DTD/sodipodi-0.dtd"
   xmlns:inkscape="http://www.inkscape.org/namespaces/inkscape"
   width="210mm"
   height="297mm"
   viewBox="0 0 210 297"
   version="1.1"
   id="svg8"
   inkscape:version="0.92.4 (unknown)"
   sodipodi:docname="jigsaw.svg">
  <defs
     id="defs2" />
  <sodipodi:namedview
     id="base"
     pagecolor="#ffffff"
     bordercolor="#666666"
     borderopacity="1.0"
     inkscape:pageopacity="0.0"
     inkscape:pageshadow="2"
     inkscape:zoom="0.11313708"
     inkscape:cx="1842.0481"
     inkscape:cy="-1251.9884"
     inkscape:document-units="mm"
     inkscape:current-layer="layer1"
     showgrid="false"
     inkscape:window-width="1680"
     inkscape:window-height="1001"
     inkscape:window-x="0"
     inkscape:window-y="25"
     inkscape:window-maximized="1" />
  <metadata
     id="metadata5">
    <rdf:RDF>
      <cc:Work
         rdf:about="">
        <dc:format>image/svg+xml</dc:format>
        <dc:type
           rdf:resource="http://purl.org/dc/dcmitype/StillImage" />
        <dc:title></dc:title>
      </cc:Work>
    </rdf:RDF>
  </metadata>
  <g
     inkscape:label="Layer 1"
     inkscape:groupmode="layer"
     id="layer1">
    <path
       style="fill:#000000;stroke-width:1.52148592"
       d="m 467.75016,840.69198 c -0.31459,-27.99536 -0.038,-32.28314 2.22,-34.40586 3.24086,-3.04682 7.36775,-2.13763 17.69666,3.89871 6.79465,3.97089 8.27026,4.34291 10.45741,2.63642 8.43777,-6.58343 9.86833,-31.21259 2.32188,-39.97407 l -2.78373,-3.23189 -12.0915,4.99564 c -17.67461,7.30234 -17.30006,7.82583 -17.8232,-24.91029 l -0.4277,-26.76383 h -34.40879 c -30.73231,0 -34.56807,0.26755 -35.89937,2.50401 -1.76523,2.96543 -0.43385,6.71687 5.10902,14.39569 7.40679,10.26098 4.40039,14.41931 -12.8729,17.80525 -12.85212,2.51928 -24.33258,1.03711 -29.92818,-3.86384 -4.04427,-3.54221 -4.17273,-5.92412 -0.65287,-12.10516 4.12418,-7.24222 6.57304,-14.44506 5.66635,-16.66639 -0.63945,-1.56661 -7.13829,-2.10423 -29.69504,-2.45653 l -28.87645,-0.45101 29.25418,0.0502 c 35.736,0.0614 35.10083,-0.3206 27.28275,16.40411 l -5.31383,11.36751 3.43775,2.61705 c 9.31949,7.0946 35.51727,5.74969 42.51999,-2.18286 1.81518,-2.05619 1.41947,-3.44344 -2.80432,-9.83126 -6.4208,-9.71045 -7.38789,-13.59024 -4.14702,-16.63705 2.23619,-2.10229 7.15746,-2.42491 36.98945,-2.42491 h 34.41009 v -31.6656 c 0,-28.66306 -0.2604,-31.79283 -2.74609,-33.00739 -3.15231,-1.5403 -4.68636,-1.05808 -14.8593,4.671 -5.03509,2.83559 -8.47147,3.8526 -10.73528,3.17711 -5.36288,-1.60019 -8.33075,-10.24163 -8.4388,-24.5709 -0.0814,-10.79761 0.41993,-13.44875 3.20819,-16.96517 4.57592,-5.77095 7.281,-5.85799 18.64204,-0.59986 15.12287,6.9992 14.92924,7.30585 14.92924,-23.64132 v -26.39635 h -34.4442 c -30.7656,0 -34.60339,0.26743 -35.93477,2.50401 -1.76523,2.96543 -0.43385,6.71687 5.10902,14.39569 7.40679,10.26098 4.40039,14.4193 -12.8729,17.80524 -12.85212,2.51929 -24.33258,1.03712 -29.92818,-3.86384 -4.04427,-3.54221 -4.17273,-5.92412 -0.65287,-12.10515 4.12418,-7.24223 6.57304,-14.44506 5.66635,-16.66639 -0.63945,-1.56661 -7.13829,-2.10423 -29.69504,-2.45653 l -28.87645,-0.45101 29.25418,0.0502 c 35.736,0.0614 35.10083,-0.3206 27.28275,16.40411 l -5.31383,11.36751 3.43775,2.61705 c 9.31949,7.0946 35.51727,5.74969 42.51999,-2.18286 1.81518,-2.0562 1.41947,-3.44344 -2.80432,-9.83126 -6.4208,-9.71045 -7.38789,-13.59024 -4.14702,-16.63705 2.23619,-2.1023 7.15746,-2.42492 36.98945,-2.42492 h 34.41009 v -31.6656 c 0,-28.66305 -0.2604,-31.79282 -2.74609,-33.00738 -3.15231,-1.5403 -4.68636,-1.05808 -14.8593,4.671 -5.03509,2.83559 -8.47147,3.8526 -10.73528,3.17711 -5.36288,-1.60019 -8.33075,-10.24163 -8.4388,-24.5709 -0.0814,-10.79761 0.41993,-13.44875 3.20819,-16.96517 4.57592,-5.77095 7.281,-5.85799 18.64204,-0.59986 15.12287,6.99919 14.92924,7.30585 14.92924,-23.64133 v -26.39642 h -35.34041 -35.34041 l -1.70883,-3.5259 c -1.44957,-2.99097 -0.86408,-4.9493 3.85927,-12.90828 6.71581,-11.31633 5.99259,-13.49105 -5.55906,-16.71613 -14.15942,-3.95312 -28.37022,-2.20961 -33.9991,4.1713 -1.88287,2.13442 -1.50224,3.72974 2.89195,12.12117 3.45039,6.58908 4.75467,10.80767 4.09983,13.26056 l -0.96037,3.59728 -30.177,-0.33423 -30.17701,-0.33423 29.26749,-0.4354 c 24.9907,-0.37179 29.40702,-0.77723 30.2223,-2.77462 0.52515,-1.28656 -1.235,-6.521 -3.91143,-11.63209 -5.59303,-10.68078 -5.50044,-13.22388 0.63805,-17.52582 3.74039,-2.62131 6.56037,-3.09263 18.04569,-3.0161 15.24189,0.10165 24.4337,2.89175 26.13581,7.93352 0.71851,2.12826 -0.36326,5.35889 -3.37946,10.0925 -6.09396,9.56381 -6.6069,11.00601 -4.9685,13.96958 1.29346,2.33964 4.65839,2.58166 35.89422,2.58166 h 34.46697 v -32.40322 c 0,-29.36555 -0.25743,-32.52899 -2.74609,-33.745 -3.15231,-1.5403 -4.68636,-1.05808 -14.8593,4.671 -5.03509,2.83559 -8.47147,3.8526 -10.73528,3.1771 -5.36288,-1.60018 -8.33075,-10.24162 -8.4388,-24.57089 -0.0814,-10.79761 0.41993,-13.44875 3.20819,-16.96518 4.57592,-5.77094 7.281,-5.85798 18.64204,-0.59985 15.12287,6.99919 14.92924,7.30585 14.92924,-23.64133 v -26.39635 h -34.4442 c -30.7656,0 -34.60339,0.26743 -35.93477,2.50402 -1.76523,2.96542 -0.43385,6.71686 5.10902,14.39569 7.40679,10.26097 4.40039,14.4193 -12.8729,17.80524 -12.85212,2.51928 -24.33258,1.03712 -29.92818,-3.86384 -4.04427,-3.54221 -4.17273,-5.92412 -0.65287,-12.10515 4.12418,-7.24223 6.57304,-14.44507 5.66635,-16.6664 -0.6401,-1.56821 -7.20057,-2.10417 -30.0861,-2.45788 l -29.26749,-0.45237 29.64523,0.0515 c 36.17968,0.0628 35.50125,-0.33929 27.6738,16.40546 l -5.31383,11.3675 3.43775,2.61705 c 9.31949,7.0946 35.51727,5.74969 42.51999,-2.18286 1.81518,-2.05619 1.41947,-3.44344 -2.80432,-9.83125 -6.4208,-9.71046 -7.38789,-13.59024 -4.14702,-16.63706 2.23619,-2.10225 7.15746,-2.42487 36.98945,-2.42487 h 34.41009 v -32.40321 c 0,-29.36555 -0.25743,-32.529 -2.74609,-33.74502 -3.15231,-1.54029 -4.68636,-1.05807 -14.8593,4.671 -5.03509,2.83561 -8.47147,3.8526 -10.73528,3.17712 -5.36288,-1.60019 -8.33075,-10.24163 -8.4388,-24.5709 -0.0814,-10.79762 0.41993,-13.44875 3.20819,-16.96517 4.57592,-5.77095 7.281,-5.85799 18.64204,-0.59986 5.43661,2.51618 11.00443,4.17093 12.37293,3.67724 2.12461,-0.76647 2.55587,-4.91836 2.95133,-28.41271 l 0.46313,-27.51506 0.35552,28.37012 0.35552,28.37012 -3.8264,0.90286 c -2.6091,0.61564 -7.09638,-0.61055 -14.10511,-3.85434 -8.92588,-4.13109 -10.6228,-4.48892 -12.89316,-2.7188 -6.78732,5.29185 -8.64186,18.65176 -4.43696,31.96337 3.43047,10.85998 5.74369,11.53989 17.78076,5.2262 8.46589,-4.44053 10.54893,-4.99097 13.73041,-3.62819 l 3.75046,1.60651 v 33.19109 33.19107 l 28.46841,0.40209 c 34.82107,0.49181 34.26424,0.13971 26.49682,16.75602 l -5.31381,11.3675 3.43773,2.61705 c 9.3195,7.0946 35.51727,5.74969 42.52,-2.18286 1.81518,-2.05619 1.41946,-3.44344 -2.80433,-9.83126 -6.42079,-9.71045 -7.38788,-13.59024 -4.14702,-16.63705 2.23619,-2.10231 7.15747,-2.42493 36.98946,-2.42493 h 34.41008 v -32.34974 c 0,-28.04576 0.34317,-32.67237 2.57937,-34.77467 3.24087,-3.04682 7.36776,-2.13763 17.69666,3.89872 6.79466,3.97088 8.27026,4.3429 10.45741,2.63641 8.43777,-6.58343 9.86834,-31.21259 2.32189,-39.97406 l -2.78373,-3.2319 -12.0915,4.99565 c -17.7899,7.34997 -17.38367,7.9471 -17.44889,-25.64916 l -0.0533,-27.50254 0.47973,27.14742 c 0.37474,21.20614 0.9466,27.31585 2.61299,27.91702 2.3628,0.8524 10.02439,-1.44983 17.72787,-5.32707 6.5747,-3.30911 9.10831,-3.18834 12.87613,0.61378 5.2131,5.26055 6.78966,16.05361 4.10992,28.13619 -3.60158,16.23903 -8.02475,19.06542 -18.93925,12.10212 -8.16789,-5.21098 -12.15826,-6.46265 -15.31255,-4.80312 -2.37892,1.2516 -2.66351,4.85769 -2.66351,33.74986 v 32.34853 l 28.46841,0.40209 c 34.82107,0.49181 34.26425,0.13971 26.49682,16.75602 l -5.31381,11.3675 3.43774,2.61705 c 9.31949,7.0946 35.51727,5.74969 42.52,-2.18286 1.81517,-2.05619 1.41946,-3.44344 -2.80433,-9.83126 -6.4208,-9.71045 -7.38789,-13.59024 -4.14702,-16.63705 2.23253,-2.09886 7.10078,-2.42493 36.20486,-2.42493 h 33.62549 v -32.40321 c 0,-29.36555 -0.25743,-32.529 -2.74608,-33.74502 -3.15232,-1.54029 -4.68637,-1.05807 -14.8593,4.671 -5.03509,2.83561 -8.47148,3.8526 -10.73529,3.17712 -5.36287,-1.60019 -8.33075,-10.24163 -8.4388,-24.5709 -0.0814,-10.79762 0.41993,-13.44875 3.20819,-16.96517 4.57593,-5.77095 7.281,-5.85799 18.64204,-0.59986 5.43661,2.51618 11.00443,4.17093 12.37293,3.67724 2.12461,-0.76647 2.55587,-4.91836 2.95134,-28.41271 l 0.46313,-27.51506 0.35551,28.37012 0.35552,28.37012 -3.82639,0.90286 c -2.60911,0.61564 -7.09638,-0.61055 -14.10512,-3.85434 -8.92588,-4.13109 -10.6228,-4.48892 -12.89317,-2.7188 -6.78731,5.29185 -8.64186,18.65176 -4.43696,31.96337 3.43048,10.85998 5.7437,11.53989 17.78077,5.2262 8.46589,-4.44053 10.54894,-4.99097 13.73041,-3.62819 l 3.75046,1.60651 v 33.22437 33.22435 h 28.07752 c 32.9182,0 32.59201,0.18205 25.14704,-14.03532 -5.59302,-10.68079 -5.50044,-13.22389 0.63806,-17.52583 3.74038,-2.62131 6.56038,-3.09263 18.04568,-3.01609 15.2419,0.10157 24.43371,2.89174 26.13581,7.93351 0.71852,2.12826 -0.36326,5.35888 -3.37945,10.09249 -6.09396,9.56382 -6.6069,11.00602 -4.96849,13.96959 1.29191,2.33685 4.62101,2.58165 35.10961,2.58165 h 33.68237 v -32.40321 c 0,-29.36555 -0.25742,-32.529 -2.74608,-33.74502 -3.15231,-1.54029 -4.68637,-1.05807 -14.8593,4.671 -5.03509,2.83561 -8.47147,3.8526 -10.73528,3.17712 -5.36288,-1.60019 -8.33075,-10.24163 -8.4388,-24.5709 -0.0814,-10.79762 0.41993,-13.44875 3.20819,-16.96517 4.57593,-5.77095 7.28099,-5.85799 18.64203,-0.59986 5.43662,2.51618 11.00443,4.17093 12.37294,3.67724 2.1246,-0.76647 2.55586,-4.91836 2.95133,-28.41271 l 0.46313,-27.51506 0.35552,28.37012 0.35551,28.37012 -3.82639,0.90286 c -2.6091,0.61564 -7.09637,-0.61055 -14.10511,-3.85434 -8.92588,-4.13109 -10.62281,-4.48892 -12.89317,-2.7188 -6.78731,5.29185 -8.64186,18.65176 -4.43696,31.96337 3.43048,10.85998 5.7437,11.53989 17.78077,5.2262 8.46588,-4.44053 10.54894,-4.99097 13.73041,-3.62819 l 3.75045,1.60651 v 33.22437 33.22435 h 28.07753 c 32.91822,0 32.59202,0.18205 25.14702,-14.03532 -5.593,-10.68079 -5.50042,-13.22389 0.6381,-17.52583 3.7404,-2.62131 6.5604,-3.09263 18.0457,-3.01609 15.2419,0.10157 24.4337,2.89174 26.1358,7.93351 0.7185,2.12826 -0.3633,5.35888 -3.3795,10.09249 -6.0857,9.55085 -6.6063,11.00692 -4.9848,13.94092 1.2604,2.28054 5.0492,2.59864 35.5019,2.98077 l 34.091,0.42779 -34.9481,0.3385 -34.9481,0.3385 -1.7088,-3.5259 c -1.4496,-2.99098 -0.8641,-4.9493 3.8592,-12.90828 6.7158,-11.31634 5.9926,-13.49105 -5.559,-16.71612 -14.1595,-3.95312 -28.3703,-2.20962 -33.9991,4.17129 -1.8829,2.13442 -1.5023,3.72974 2.8919,12.12118 3.4504,6.58907 4.7547,10.80766 4.0998,13.26055 l -0.9603,3.59728 h -29.00013 -29.00012 v 27.26369 27.2637 l -3.82639,0.90286 c -2.6091,0.61563 -7.09637,-0.61056 -14.10511,-3.85434 -8.92588,-4.13109 -10.62281,-4.48893 -12.89317,-2.7188 -6.78731,5.29184 -8.64186,18.65175 -4.43696,31.96337 3.43048,10.85998 5.7437,11.53988 17.78077,5.2262 8.46588,-4.44054 10.54894,-4.99098 13.73041,-3.62819 l 3.75045,1.6065 v 33.19107 33.19108 l 28.46842,0.40209 c 34.82103,0.49182 34.26423,0.13971 26.49683,16.75601 l -5.3138,11.36751 3.4377,2.61705 c 9.3195,7.0946 35.5173,5.74969 42.52,-2.18286 1.8152,-2.05619 1.4195,-3.44344 -2.8043,-9.83126 -6.4208,-9.71045 -7.3879,-13.59023 -4.147,-16.63705 2.2579,-2.12272 6.8188,-2.38282 36.5971,-2.08707 l 34.0178,0.33786 -33.7376,0.41532 c -28.6951,0.35325 -34.0157,0.76655 -35.5985,2.76527 -2.1983,2.77604 -0.9685,6.45685 4.8508,14.51863 7.4067,10.26098 4.4003,14.4193 -12.8729,17.80524 -12.8522,2.51928 -24.3326,1.03712 -29.9282,-3.86384 -4.04429,-3.54221 -4.17276,-5.92412 -0.6529,-12.10515 4.1434,-7.27597 6.5717,-14.44847 5.6533,-16.69841 -0.6646,-1.62819 -6.4726,-2.03754 -28.90922,-2.03754 h -28.07753 v 27.26369 27.2637 l -3.82639,0.90286 c -2.6091,0.61563 -7.09637,-0.61056 -14.10511,-3.85434 -8.92588,-4.1311 -10.62281,-4.48893 -12.89317,-2.7188 -6.78731,5.29184 -8.64186,18.65175 -4.43696,31.96336 3.43048,10.85999 5.7437,11.53989 17.78077,5.2262 8.46588,-4.44053 10.54894,-4.99097 13.73041,-3.62818 l 3.75045,1.6065 v 32.45346 32.45346 l 28.46842,0.40209 c 34.82103,0.49181 34.26423,0.13971 26.49683,16.75602 l -5.3138,11.3675 3.4377,2.61705 c 9.3195,7.0946 35.5173,5.74969 42.52,-2.18286 1.8152,-2.05619 1.4195,-3.44344 -2.8043,-9.83126 -6.4208,-9.71045 -7.3879,-13.59024 -4.147,-16.63705 2.2579,-2.12272 6.8188,-2.38282 36.5971,-2.08707 l 34.0178,0.33786 -33.7376,0.41532 c -28.6951,0.35325 -34.0157,0.76655 -35.5985,2.76527 -2.1983,2.77604 -0.9685,6.45685 4.8508,14.51863 7.4067,10.26098 4.4003,14.4193 -12.8729,17.80524 -12.8522,2.51929 -24.3326,1.03712 -29.9282,-3.86384 -4.04429,-3.54221 -4.17276,-5.92412 -0.6529,-12.10515 4.1434,-7.27596 6.5717,-14.44847 5.6533,-16.69841 -0.6646,-1.6282 -6.4726,-2.03754 -28.90922,-2.03754 h -28.07753 v 27.26369 27.2637 l -3.82639,0.90286 c -2.6091,0.61563 -7.09637,-0.61056 -14.10511,-3.85434 -8.92588,-4.13109 -10.62281,-4.48893 -12.89317,-2.7188 -6.78731,5.29184 -8.64186,18.65175 -4.43696,31.96337 3.43048,10.85998 5.7437,11.53988 17.78077,5.2262 8.46588,-4.44054 10.54894,-4.99098 13.73041,-3.62819 l 3.75045,1.6065 v 32.48674 32.48675 h 28.07753 c 32.91822,0 32.59202,0.18204 25.14702,-14.03534 -5.593,-10.68078 -5.50042,-13.22388 0.6381,-17.52582 3.7404,-2.62131 6.5604,-3.09263 18.0457,-3.01609 15.2419,0.10164 24.4337,2.89175 26.1358,7.93352 0.7185,2.12825 -0.3633,5.35888 -3.3795,10.09249 -6.0857,9.55085 -6.6063,11.00692 -4.9848,13.94092 1.2604,2.28053 5.0492,2.59863 35.5019,2.98076 l 34.091,0.42779 -34.9481,0.33851 -34.9481,0.33849 -1.7088,-3.52589 c -1.4496,-2.99098 -0.8641,-4.94931 3.8592,-12.90829 6.7158,-11.31633 5.9926,-13.49104 -5.559,-16.71612 -14.1595,-3.95313 -28.3703,-2.20962 -33.9991,4.17129 -1.8829,2.13443 -1.5023,3.72974 2.8919,12.12117 3.4504,6.58909 4.7547,10.80768 4.0998,13.26056 l -0.9603,3.59728 h -29.00013 -29.00012 v 27.2637 27.26369 l -3.82639,0.90286 c -2.6091,0.61563 -7.09637,-0.61055 -14.10511,-3.85434 -8.92588,-4.13109 -10.62281,-4.48892 -12.89317,-2.71879 -6.78731,5.29183 -8.64186,18.65175 -4.43696,31.96336 3.43048,10.85998 5.7437,11.53989 17.78077,5.2262 8.46588,-4.44054 10.54894,-4.99098 13.73041,-3.62819 l 3.75045,1.6065 -0.36005,32.85555 -0.36006,32.85556 -0.45504,-32.04975 c -0.55576,-39.14512 -0.26298,-38.67845 -17.99942,-28.68985 -5.03509,2.83559 -8.47147,3.8526 -10.73528,3.1771 -5.36288,-1.60018 -8.33075,-10.24162 -8.4388,-24.5709 -0.0814,-10.79761 0.41993,-13.44875 3.20819,-16.96517 4.57593,-5.77095 7.28099,-5.85798 18.64203,-0.59986 15.12288,6.9992 14.92924,7.30586 14.92924,-23.64132 v -26.39636 h -33.6596 c -30.02764,0 -33.82045,0.27019 -35.15018,2.50401 -1.76523,2.96543 -0.43385,6.71687 5.10903,14.39569 7.40678,10.26098 4.40039,14.41931 -12.87291,17.80525 -12.85212,2.51928 -24.33258,1.03711 -29.92816,-3.86384 -4.04428,-3.54221 -4.17275,-5.92412 -0.65288,-12.10516 4.14338,-7.27596 6.57165,-14.44847 5.65329,-16.6984 -0.6646,-1.6282 -6.47263,-2.03755 -28.90922,-2.03755 h -28.07752 v 26.39635 c 0,21.09317 0.43542,26.55343 2.16732,27.17824 2.39323,0.86338 10.02255,-1.4195 17.76192,-5.31479 6.5747,-3.30911 9.10831,-3.18834 12.87613,0.61378 5.2131,5.26055 6.78966,16.0536 4.10992,28.13618 -3.60158,16.23904 -8.02475,19.06542 -18.93925,12.10213 -8.57523,-5.47087 -12.49047,-6.62701 -15.44332,-4.56028 -2.12602,1.488 -2.56564,6.49005 -2.94139,33.46699 l -0.44177,31.7175 -0.35938,-31.98093 c -0.31459,-27.99536 -0.038,-32.28314 2.22,-34.40586 3.24086,-3.04682 7.36775,-2.13763 17.69666,3.89871 6.79465,3.97089 8.27026,4.34291 10.45741,2.63642 8.43777,-6.58343 9.86834,-31.21259 2.32188,-39.97407 l -2.78372,-3.23189 -12.0915,4.99564 c -17.67462,7.30234 -17.30007,7.82583 -17.82321,-24.91029 l -0.42769,-26.76383 H 754.4835 719.96309 l -1.70882,-3.52589 c -1.44959,-2.99098 -0.86409,-4.94931 3.85926,-12.90829 6.71581,-11.31633 5.9926,-13.49104 -5.55905,-16.71612 -14.15943,-3.95313 -28.37023,-2.20962 -33.9991,4.17129 -1.88287,2.13443 -1.50225,3.72974 2.89195,12.12117 3.45038,6.58909 4.75466,10.80768 4.09982,13.26056 l -0.96036,3.59728 h -29.00011 -29.00012 v 27.2637 27.26369 l -3.82639,0.90286 c -2.60911,0.61563 -7.09638,-0.61055 -14.10512,-3.85434 -8.92588,-4.13109 -10.6228,-4.48892 -12.89316,-2.71879 -6.78731,5.29183 -8.64186,18.65175 -4.43697,31.96336 3.43049,10.85998 5.74371,11.53989 17.78077,5.2262 8.46589,-4.44054 10.54894,-4.99098 13.73041,-3.62819 l 3.75046,1.6065 -0.36005,32.85555 -0.36007,32.85556 -0.45503,-32.04975 c -0.55576,-39.14512 -0.26298,-38.67845 -17.99942,-28.68985 -5.03509,2.83559 -8.47148,3.8526 -10.73528,3.1771 -5.36288,-1.60018 -8.33075,-10.24162 -8.43881,-24.5709 -0.0814,-10.79761 0.41993,-13.44875 3.2082,-16.96517 4.57593,-5.77095 7.28099,-5.85798 18.64203,-0.59986 15.12288,6.9992 14.92924,7.30586 14.92924,-23.64132 v -26.39635 h -34.4442 c -30.76559,0 -34.60339,0.26743 -35.93477,2.50401 -1.76523,2.96543 -0.43385,6.71687 5.10903,14.39569 7.40678,10.26098 4.40038,14.41931 -12.87291,17.80525 -12.85212,2.51928 -24.33258,1.03711 -29.92817,-3.86384 -4.04427,-3.54221 -4.17274,-5.92412 -0.65287,-12.10516 4.14338,-7.27596 6.57165,-14.44847 5.65328,-16.6984 -0.66459,-1.6282 -6.47262,-2.03755 -28.90921,-2.03755 h -28.07752 v 26.39635 c 0,21.09317 0.43541,26.55343 2.16731,27.17824 2.39324,0.86338 10.02256,-1.4195 17.76193,-5.31479 6.5747,-3.30911 9.10831,-3.18834 12.87612,0.61378 5.2131,5.26055 6.78967,16.0536 4.10993,28.13618 -3.60159,16.23904 -8.02476,19.06542 -18.93925,12.10213 -8.57523,-5.47087 -12.49047,-6.62701 -15.44333,-4.56028 -2.12601,1.488 -2.56564,6.49005 -2.94138,33.46699 l -0.44177,31.7175 z m 87.0444,-85.52801 c 3.62478,-0.87416 7.79218,-2.83771 9.26091,-4.36347 2.53302,-2.63136 2.41627,-3.15843 -2.26898,-10.24415 -6.44248,-9.74323 -7.41212,-13.62064 -4.16871,-16.66984 2.23619,-2.10231 7.15747,-2.42493 36.98946,-2.42493 h 34.41008 v -31.6656 c 0,-28.66306 -0.26039,-31.79283 -2.74608,-33.00739 -3.15231,-1.5403 -4.68637,-1.05808 -14.8593,4.671 -5.03509,2.83559 -8.47148,3.8526 -10.73528,3.17711 -5.36288,-1.60019 -8.33075,-10.24163 -8.43881,-24.5709 -0.0814,-10.79761 0.41993,-13.44875 3.2082,-16.96517 4.57593,-5.77095 7.28099,-5.85799 18.64203,-0.59986 15.12288,6.9992 14.92924,7.30585 14.92924,-23.64132 V 572.4631 h -34.4442 c -30.76559,0 -34.60339,0.26743 -35.93477,2.50401 -1.76523,2.96543 -0.43385,6.71687 5.10903,14.39569 7.40678,10.26098 4.40038,14.4193 -12.87291,17.80524 -12.85212,2.51929 -24.33258,1.03712 -29.92817,-3.86384 -4.04427,-3.54221 -4.17274,-5.92412 -0.65287,-12.10515 4.14338,-7.27596 6.57165,-14.44847 5.65328,-16.69841 -0.66459,-1.6282 -6.47262,-2.03754 -28.90921,-2.03754 h -28.07752 v 27.26369 27.2637 l -3.8264,0.90286 c -2.6091,0.61563 -7.09638,-0.61056 -14.10511,-3.85434 -8.92588,-4.13109 -10.6228,-4.48893 -12.89316,-2.7188 -6.78732,5.29184 -8.64186,18.65175 -4.43696,31.96337 3.43047,10.85998 5.74369,11.53988 17.78076,5.2262 8.46589,-4.44054 10.54893,-4.99098 13.73041,-3.62819 l 3.75046,1.6065 v 32.45346 32.45346 l 28.46841,0.40209 c 34.79317,0.49142 34.25695,0.1553 26.54981,16.64266 -6.14289,13.14109 -5.57408,14.54153 7.23151,17.80413 7.69034,1.95933 11.75375,1.77327 23.58485,-1.07992 z m 321.68388,0 c 3.62478,-0.87416 7.79219,-2.83771 9.26092,-4.36347 2.53301,-2.63136 2.41627,-3.15843 -2.26899,-10.24415 -6.44248,-9.74323 -7.41211,-13.62064 -4.16871,-16.66984 2.23253,-2.09886 7.10079,-2.42493 36.20486,-2.42493 h 33.62549 v -31.6656 c 0,-28.66306 -0.26039,-31.79283 -2.74608,-33.00739 -3.15231,-1.5403 -4.68637,-1.05808 -14.8593,4.671 -5.03509,2.83559 -8.47147,3.8526 -10.73528,3.17711 -5.36288,-1.60019 -8.33075,-10.24163 -8.4388,-24.5709 -0.0814,-10.79761 0.41993,-13.44875 3.20819,-16.96517 4.57593,-5.77095 7.28099,-5.85799 18.64203,-0.59986 15.12288,6.9992 14.92924,7.30585 14.92924,-23.64132 V 572.4631 h -33.6596 c -30.02764,0 -33.82045,0.27019 -35.15018,2.50401 -1.76523,2.96543 -0.43385,6.71687 5.10903,14.39569 7.40678,10.26098 4.40039,14.4193 -12.87291,17.80524 -12.85212,2.51929 -24.33258,1.03712 -29.92816,-3.86384 -4.04428,-3.54221 -4.17275,-5.92412 -0.65288,-12.10515 4.14338,-7.27596 6.57165,-14.44847 5.65329,-16.69841 -0.6646,-1.6282 -6.47263,-2.03754 -28.90922,-2.03754 h -28.07752 v 26.39635 c 0,21.09317 0.43542,26.55343 2.16732,27.17823 2.39323,0.86338 10.02255,-1.41949 17.76192,-5.31479 6.5747,-3.30911 9.10831,-3.18833 12.87613,0.61379 5.2131,5.26054 6.78966,16.0536 4.10992,28.13618 -3.60158,16.23903 -8.02475,19.06542 -18.93925,12.10213 -8.16789,-5.211 -12.15826,-6.46266 -15.31255,-4.80312 -2.37595,1.25003 -2.66349,4.81384 -2.66349,33.01223 v 31.61091 l 28.46841,0.40209 c 34.79317,0.49142 34.25695,0.1553 26.54981,16.64266 -6.14289,13.14109 -5.57408,14.54153 7.23152,17.80413 7.69033,1.95933 11.75374,1.77327 23.58484,-1.07992 z m -188.769,-36.07362 c 0.53461,-1.30974 -1.21049,-6.53115 -3.89837,-11.66411 -5.59301,-10.68078 -5.50043,-13.22388 0.63806,-17.52582 3.74039,-2.62131 6.56038,-3.09263 18.04569,-3.01609 15.2419,0.10164 24.43371,2.89175 26.13581,7.93352 0.71851,2.12825 -0.36327,5.35888 -3.37946,10.09249 -6.09396,9.56381 -6.6069,11.00602 -4.96849,13.96958 1.29191,2.33686 4.62101,2.58166 35.10961,2.58166 h 33.68238 v -31.61213 c 0,-27.36143 0.34684,-31.93819 2.57937,-34.03705 3.24086,-3.04681 7.36775,-2.13762 17.69666,3.89872 6.79465,3.97088 8.27026,4.34291 10.45741,2.63642 8.43777,-6.58344 9.86834,-31.21259 2.32188,-39.97407 l -2.78372,-3.23189 -12.0915,4.99564 c -17.67462,7.30234 -17.30007,7.82582 -17.82321,-24.91029 l -0.42769,-26.76383 h -33.62421 c -29.99434,0 -33.78512,0.27032 -35.11478,2.50401 -1.76522,2.96543 -0.43384,6.71687 5.10904,14.39569 7.40677,10.26098 4.40038,14.4193 -12.87291,17.80524 -12.85212,2.51929 -24.33258,1.03712 -29.92817,-3.86384 -4.04427,-3.54221 -4.17274,-5.92412 -0.65288,-12.10515 4.14338,-7.27596 6.57166,-14.44847 5.65329,-16.69841 -0.6646,-1.6282 -6.47262,-2.03754 -28.90921,-2.03754 h -28.07753 v 27.26369 27.2637 l -3.82639,0.90286 c -2.60911,0.61563 -7.09638,-0.61056 -14.10512,-3.85434 -8.92588,-4.13109 -10.6228,-4.48893 -12.89316,-2.7188 -6.78731,5.29184 -8.64186,18.65175 -4.43697,31.96337 3.43049,10.85998 5.74371,11.53988 17.78077,5.2262 8.46589,-4.44054 10.54894,-4.99098 13.73041,-3.62819 l 3.75046,1.6065 v 32.48674 32.48675 h 28.07753 c 24.3437,0 28.20624,-0.31533 29.0454,-2.37123 z M 554.79456,604.69026 c 3.62478,-0.87417 7.79218,-2.83771 9.26091,-4.36347 2.53302,-2.63136 2.41627,-3.15843 -2.26898,-10.24415 -6.44248,-9.74323 -7.41212,-13.62065 -4.16871,-16.66985 2.23619,-2.10231 7.15747,-2.42493 36.98946,-2.42493 h 34.41008 v -31.61212 c 0,-27.36143 0.34684,-31.93819 2.57937,-34.03705 3.24087,-3.04681 7.36776,-2.13763 17.69666,3.89872 6.79466,3.97088 8.27026,4.3429 10.45741,2.63641 8.43777,-6.58343 9.86834,-31.21258 2.32189,-39.97406 l -2.78373,-3.2319 -12.0915,4.99564 c -17.67462,7.30234 -17.30007,7.82583 -17.8232,-24.91029 l -0.4277,-26.76382 h -34.4088 c -30.7323,0 -34.56805,0.26755 -35.89937,2.50401 -1.76523,2.96542 -0.43385,6.71687 5.10903,14.39569 7.40678,10.26098 4.40038,14.4193 -12.87291,17.80524 -12.85212,2.51928 -24.33258,1.03712 -29.92817,-3.86384 -4.04427,-3.54221 -4.17274,-5.92412 -0.65287,-12.10515 4.14338,-7.27597 6.57165,-14.44847 5.65328,-16.69841 -0.66459,-1.62819 -6.47262,-2.03754 -28.90921,-2.03754 h -28.07752 v 27.26369 27.2637 l -3.8264,0.90286 c -2.6091,0.61563 -7.09638,-0.61056 -14.10511,-3.85434 -8.92588,-4.1311 -10.6228,-4.48893 -12.89316,-2.7188 -6.78732,5.29184 -8.64186,18.65175 -4.43696,31.96336 3.43047,10.85999 5.74369,11.53989 17.78076,5.2262 8.46589,-4.44053 10.54893,-4.99097 13.73041,-3.62818 l 3.75046,1.6065 v 32.45346 32.45346 l 28.46841,0.40209 c 34.79317,0.49142 34.25695,0.1553 26.54981,16.64266 -6.14289,13.14109 -5.57408,14.54153 7.23151,17.80412 7.69034,1.95933 11.75375,1.77328 23.58485,-1.07991 z m 161.62653,0 c 3.62478,-0.87417 7.79219,-2.83771 9.26092,-4.36347 2.53302,-2.63136 2.41627,-3.15843 -2.26899,-10.24415 -6.44248,-9.74323 -7.41211,-13.62065 -4.1687,-16.66985 2.23253,-2.09886 7.10078,-2.42493 36.20486,-2.42493 h 33.62549 v -31.61212 c 0,-27.36143 0.34684,-31.93819 2.57937,-34.03705 3.24086,-3.04681 7.36775,-2.13763 17.69666,3.89872 6.79465,3.97088 8.27026,4.3429 10.45741,2.63641 8.43777,-6.58343 9.86834,-31.21258 2.32188,-39.97406 l -2.78372,-3.2319 -12.0915,4.99564 c -17.67462,7.30234 -17.30007,7.82583 -17.82321,-24.91029 l -0.42769,-26.76382 h -34.52042 -34.52041 l -1.70882,-3.5259 c -1.44959,-2.99097 -0.86409,-4.9493 3.85926,-12.90828 6.71581,-11.31633 5.9926,-13.49105 -5.55905,-16.71613 -14.15943,-3.95312 -28.37023,-2.20961 -33.9991,4.1713 -1.88287,2.13442 -1.50225,3.72974 2.89195,12.12117 3.45038,6.58908 4.75466,10.80767 4.09982,13.26056 l -0.96036,3.59728 h -29.00011 -29.00012 v 26.39634 c 0,21.09317 0.43542,26.55344 2.16732,27.17824 2.39323,0.86338 10.02255,-1.4195 17.76192,-5.31479 6.5747,-3.30911 9.10832,-3.18833 12.87613,0.61379 5.2131,5.26054 6.78966,16.05359 4.10993,28.13617 -3.60159,16.23904 -8.02476,19.06542 -18.93926,12.10213 -8.16788,-5.21099 -12.15825,-6.46265 -15.31254,-4.80312 -2.37596,1.25004 -2.6635,4.81385 -2.6635,33.01224 v 31.61091 l 28.46841,0.40209 c 34.79317,0.49142 34.25695,0.1553 26.54981,16.64266 -6.14289,13.14109 -5.57407,14.54153 7.23152,17.80412 7.69033,1.95933 11.75375,1.77328 23.58484,-1.07991 z m 160.05735,0 c 3.62478,-0.87417 7.79219,-2.83771 9.26092,-4.36347 2.53301,-2.63136 2.41627,-3.15843 -2.26899,-10.24415 -6.44248,-9.74323 -7.41211,-13.62065 -4.16871,-16.66985 2.23253,-2.09886 7.10079,-2.42493 36.20486,-2.42493 h 33.62549 v -31.6656 c 0,-28.66305 -0.26039,-31.79282 -2.74608,-33.00738 -3.15231,-1.5403 -4.68637,-1.05808 -14.8593,4.671 -5.03509,2.83559 -8.47147,3.8526 -10.73528,3.17711 -5.36288,-1.60019 -8.33075,-10.24163 -8.4388,-24.5709 -0.0814,-10.79761 0.41993,-13.44875 3.20819,-16.96517 4.57593,-5.77095 7.28099,-5.85799 18.64203,-0.59986 15.12288,6.99919 14.92924,7.30585 14.92924,-23.64133 V 421.98939 H 914.5762 880.02038 l -1.70881,-3.5259 c -1.44959,-2.99097 -0.86409,-4.9493 3.85926,-12.90828 6.7158,-11.31633 5.99259,-13.49105 -5.55906,-16.71613 -14.15942,-3.95312 -28.37023,-2.20961 -33.9991,4.1713 -1.88287,2.13442 -1.50224,3.72974 2.89196,12.12117 3.45038,6.58908 4.75466,10.80767 4.09982,13.26056 l -0.96036,3.59728 h -29.00012 -29.00011 v 26.39634 c 0,21.09317 0.43542,26.55344 2.16732,27.17824 2.39323,0.86338 10.02255,-1.4195 17.76192,-5.31479 6.5747,-3.30911 9.10831,-3.18833 12.87613,0.61379 5.2131,5.26054 6.78966,16.05359 4.10992,28.13617 -3.60158,16.23904 -8.02475,19.06542 -18.93925,12.10213 -8.16789,-5.21099 -12.15826,-6.46265 -15.31255,-4.80312 -2.37595,1.25004 -2.66349,4.81385 -2.66349,33.01224 v 31.61091 l 28.46841,0.40209 c 34.79317,0.49142 34.25695,0.1553 26.54981,16.64266 -6.14289,13.14109 -5.57408,14.54153 7.23152,17.80412 7.69033,1.95933 11.75374,1.77328 23.58484,-1.07991 z M 554.79456,454.21655 c 3.62478,-0.87417 7.79218,-2.83772 9.26091,-4.36348 2.53302,-2.63135 2.41627,-3.15843 -2.26898,-10.24414 -6.44248,-9.74324 -7.41212,-13.62064 -4.16871,-16.66985 2.23619,-2.10231 7.15747,-2.42492 36.98946,-2.42492 h 34.41008 v -32.34974 c 0,-28.04577 0.34317,-32.67238 2.57937,-34.77467 3.24087,-3.04681 7.36776,-2.13763 17.69666,3.89871 6.79466,3.97089 8.27026,4.34291 10.45741,2.63642 8.43777,-6.58343 9.86834,-31.21258 2.32189,-39.97406 l -2.78373,-3.2319 -12.0915,4.99564 c -17.67462,7.30234 -17.30007,7.82583 -17.8232,-24.91029 l -0.4277,-26.76383 h -34.4088 c -30.7323,0 -34.56805,0.26755 -35.89937,2.50402 -1.76523,2.96542 -0.43385,6.71686 5.10903,14.39569 7.40678,10.26097 4.40038,14.4193 -12.87291,17.80524 -12.85212,2.51928 -24.33258,1.03712 -29.92817,-3.86384 -4.04427,-3.54221 -4.17274,-5.92412 -0.65287,-12.10515 4.14338,-7.27597 6.57165,-14.44847 5.65328,-16.69841 -0.66459,-1.6282 -6.47262,-2.03755 -28.90921,-2.03755 h -28.07752 v 27.2637 27.2637 l -3.8264,0.90286 c -2.6091,0.61562 -7.09638,-0.61056 -14.10511,-3.85434 -8.92588,-4.1311 -10.6228,-4.48893 -12.89316,-2.7188 -6.78732,5.29184 -8.64186,18.65175 -4.43696,31.96336 3.43047,10.85998 5.74369,11.53989 17.78076,5.2262 8.46589,-4.44053 10.54893,-4.99097 13.73041,-3.62818 l 3.75046,1.6065 v 33.19107 33.19108 l 28.46841,0.40209 c 34.79317,0.49142 34.25695,0.1553 26.54981,16.64266 -6.14289,13.14109 -5.57408,14.54152 7.23151,17.80412 7.69034,1.95933 11.75375,1.77327 23.58485,-1.07991 z m 132.91488,-36.07362 c 0.53461,-1.30975 -1.21049,-6.53115 -3.89837,-11.66411 -5.59301,-10.68078 -5.50043,-13.22388 0.63806,-17.52582 3.74039,-2.62131 6.56038,-3.09263 18.04569,-3.0161 15.2419,0.10165 24.43371,2.89175 26.13581,7.93352 0.71851,2.12826 -0.36327,5.35889 -3.37946,10.0925 -6.09396,9.56381 -6.6069,11.00601 -4.96849,13.96958 1.29191,2.33686 4.62101,2.58166 35.10961,2.58166 h 33.68238 v -32.34974 c 0,-28.04577 0.34316,-32.67238 2.57937,-34.77467 3.24086,-3.04681 7.36775,-2.13763 17.69666,3.89871 6.79465,3.97089 8.27026,4.34291 10.45741,2.63642 8.43777,-6.58343 9.86834,-31.21258 2.32188,-39.97406 l -2.78372,-3.2319 -12.0915,4.99564 c -17.67462,7.30234 -17.30007,7.82583 -17.82321,-24.91029 l -0.42769,-26.76383 h -33.62421 c -29.99434,0 -33.78512,0.27032 -35.11478,2.50402 -1.76522,2.96542 -0.43384,6.71686 5.10904,14.39569 7.40677,10.26097 4.40038,14.4193 -12.87291,17.80524 -12.85212,2.51928 -24.33258,1.03712 -29.92817,-3.86384 -4.04427,-3.54221 -4.17274,-5.92412 -0.65288,-12.10515 4.14338,-7.27597 6.57166,-14.44847 5.65329,-16.69841 -0.6646,-1.6282 -6.47262,-2.03755 -28.90921,-2.03755 h -28.07753 v 26.39635 c 0,21.09317 0.43542,26.55343 2.16732,27.17824 2.39323,0.86338 10.02255,-1.4195 17.76192,-5.31479 6.5747,-3.30911 9.10832,-3.18833 12.87613,0.61378 5.2131,5.26055 6.78966,16.0536 4.10993,28.13618 -3.60159,16.23904 -8.02476,19.06542 -18.93926,12.10213 -8.16788,-5.21099 -12.15825,-6.46265 -15.31254,-4.80312 -2.37904,1.25166 -2.6635,4.85967 -2.6635,33.78314 v 32.38181 h 28.07753 c 24.3437,0 28.20624,-0.31534 29.0454,-2.37123 z m 160.05735,0 c 0.5346,-1.30975 -1.21049,-6.53115 -3.89837,-11.66411 -5.59302,-10.68078 -5.50044,-13.22388 0.63806,-17.52582 3.74038,-2.62131 6.56038,-3.09263 18.04568,-3.0161 15.2419,0.10165 24.43371,2.89175 26.13581,7.93352 0.71852,2.12826 -0.36326,5.35889 -3.37945,10.0925 -6.09396,9.56381 -6.6069,11.00601 -4.96849,13.96958 1.29191,2.33686 4.62101,2.58166 35.10961,2.58166 h 33.68237 v -32.40322 c 0,-29.36555 -0.25742,-32.52899 -2.74608,-33.745 -3.15231,-1.5403 -4.68637,-1.05808 -14.8593,4.671 -5.03509,2.83559 -8.47147,3.8526 -10.73528,3.1771 -5.36288,-1.60018 -8.33075,-10.24162 -8.4388,-24.57089 -0.0814,-10.79761 0.41993,-13.44875 3.20819,-16.96518 4.57593,-5.77094 7.28099,-5.85798 18.64203,-0.59985 15.12288,6.99919 14.92924,7.30585 14.92924,-23.64133 V 270.04044 H 914.5762 880.02038 l -1.70881,-3.52589 c -1.44959,-2.99098 -0.86409,-4.9493 3.85926,-12.90829 6.7158,-11.31633 5.99259,-13.49105 -5.55906,-16.71611 -14.15942,-3.95313 -28.37023,-2.20963 -33.9991,4.17129 -1.88287,2.13442 -1.50224,3.72974 2.89196,12.12117 3.45038,6.58907 4.75466,10.80767 4.09982,13.26055 l -0.96036,3.59728 h -29.00012 -29.00011 v 26.39635 c 0,21.09317 0.43542,26.55343 2.16732,27.17824 2.39323,0.86338 10.02255,-1.4195 17.76192,-5.31479 6.5747,-3.30911 9.10831,-3.18833 12.87613,0.61378 5.2131,5.26055 6.78966,16.0536 4.10992,28.13618 -3.60158,16.23904 -8.02475,19.06542 -18.93925,12.10213 -8.16789,-5.21099 -12.15826,-6.46265 -15.31255,-4.80312 -2.37903,1.25166 -2.66349,4.85967 -2.66349,33.78314 v 32.38181 h 28.07752 c 24.34371,0 28.20625,-0.31534 29.04541,-2.37123 z"
       id="path826"
       inkscape:connector-curvature="0" />
  </g>
</svg>
